# xmcd
#
# Track frame offsets: 
#        150
#        17437
#        31964
#        44639
#        72072
#        86390
#        102712
#        119577
#        141910
#        158172
#        177586
#        196510
#
# Disc length: 2862 seconds
#
# Revision: 0
# Processed by: cddbd v1.5.2PL0 Copyright (c) Steve Scherf et al.
# Submitted via: ExactAudioCopy v0.99pb5
#
DISCID=a00b2c0c
DTITLE=Robert Plant - Band of Joy
DYEAR=2010
DGENRE=Blues
TTITLE0=Angel Dance
TTITLE1=House of Cards
TTITLE2=Central Two-O-Nine
TTITLE3=Silver Rider
TTITLE4=You Can't Buy My Love
TTITLE5=Falling In Love Again
TTITLE6=The Only Sound That Matters
TTITLE7=Monkey
TTITLE8=Cindy, I'll Marry You Someday
TTITLE9=Harm's Swift Way
TTITLE10=Satan Your Kingdom Must Come Down
TTITLE11=Even This Shall Pass Away
EXTD=
EXTT0=Angel Dance
EXTT1=House of Cards
EXTT2=
EXTT3=
EXTT4=
EXTT5=
EXTT6=
EXTT7=
EXTT8=
EXTT9=
EXTT10=
EXTT11=
PLAYORDER=
